# xmcd
#
# Track frame offsets: 
#        150
#        19862
#        38469
#        61223
#        85983
#        114307
#        138446
#        152691
#        167773
#        192996
#        206749
#        225575
#        246041
#        264175
#        285563
#        302317
#
# Disc length: 4270 seconds
#
# Revision: 0
# Processed by: cddbd v1.5.2PL0 Copyright (c) Steve Scherf et al.
# Submitted via: ExactAudioCopy v0.95b4
#
DISCID=c710ac10
DTITLE=Archie Bell and The Drells - Where Will You Go When the Party's O
DTITLE=ver-Hard Not To Like It-Strategy [CD1]
DYEAR=2006
DGENRE=R&B
TTITLE0=Don't Let Love Get You Down
TTITLE1=Where Will You Go When the Party's Over
TTITLE2=Right Here Is Where I Want To Be
TTITLE3=Dancin' Man
TTITLE4=Everybody Have a Good Time
TTITLE5=I Swear You're Beautiful
TTITLE6=Nothing Comes Easy
TTITLE7=I Bet I Can Do That Dance You're Doin'
TTITLE8=Glad You Could Make It
TTITLE9=Disco Showdown
TTITLE10=Disco Fever
TTITLE11=On the Radio
TTITLE12=Its Hard Not to Like You
TTITLE13=There's No Other Like You
TTITLE14=Real Good Feeling
TTITLE15=I've Been Missing You
EXTD=
EXTT0=
EXTT1=
EXTT2=
EXTT3=
EXTT4=
EXTT5=
EXTT6=
EXTT7=
EXTT8=
EXTT9=
EXTT10=
EXTT11=
EXTT12=
EXTT13=
EXTT14=
EXTT15=
PLAYORDER=
